<svg width="254" height="136" viewBox="0 0 254 136" fill="none" xmlns="http://www.w3.org/2000/svg">
<path d="M95.82 58.5249H93.15C99.46 54.3349 103.63 47.1649 103.63 39.0149C103.63 28.0649 96.11 18.9049 85.96 16.3449L90.36 7.99487C90.86 6.96487 90.47 5.75487 89.51 5.28487L78.97 0.184873C78.5 -0.0451272 77.96 -0.0551272 77.46 0.124873C76.96 0.314873 76.55 0.704873 76.31 1.19487L63.83 24.8349C62.84 26.8949 63.6 29.3249 65.54 30.2649L63.84 33.7649L70.87 37.1649L72.57 33.6649C74.51 34.6049 76.89 33.6949 77.89 31.6349L82.13 23.6049C89.83 24.5649 95.82 31.0649 95.82 39.0249C95.82 47.6249 88.82 54.6349 80.21 54.6349C76.29 54.6349 71.23 53.1449 68.5 50.7349V48.7849C68.5 47.7049 69.37 46.8349 70.45 46.8349H80.2V42.9349H49V46.8349H58.75C59.83 46.8349 60.7 47.7049 60.7 48.7849V58.5349C56.39 58.5349 52.9 58.1249 52.9 62.4349H103.62C103.62 58.1249 100.13 58.5349 95.82 58.5349V58.5249ZM82.16 5.18487C81.63 5.42487 81.18 5.89487 80.91 6.46487L71.93 23.4049L68.51 21.7449C68.58 21.4849 68.59 21.2249 68.72 20.9749L77.29 5.09487C77.53 4.59487 77.95 4.21487 78.44 4.02487C78.94 3.84487 79.48 3.85487 79.95 4.08487L82.21 5.18487C82.21 5.18487 82.18 5.18487 82.16 5.18487Z" fill="#74D354"/>
<path d="M174.172 43.7647V40.8847C173.992 40.7047 173.802 40.5147 173.612 40.3447C173.122 39.8847 172.642 39.4447 172.172 39.0347V45.6147C172.652 45.1947 173.132 44.7547 173.612 44.2947C173.792 44.1247 173.982 43.9447 174.162 43.7547L174.172 43.7647Z" fill="#74D354"/>
<path d="M169.961 47.3947V37.2347C169.371 36.7847 168.781 36.3847 168.201 36.0147C168.121 35.9647 168.041 35.9147 167.961 35.8647V48.7747C168.041 48.7247 168.131 48.6747 168.211 48.6147C168.791 48.2347 169.371 47.8347 169.961 47.3947Z" fill="#74D354"/>
<path d="M165.75 34.595C165.07 34.245 164.41 33.925 163.75 33.665V50.975C164.41 50.715 165.07 50.405 165.75 50.045V34.585V34.595Z" fill="#74D354"/>
<path d="M161.539 32.8948C160.869 32.6948 160.209 32.5448 159.539 32.4248V52.2048C160.199 52.0948 160.869 51.9348 161.539 51.7348V32.8948Z" fill="#74D354"/>
<path d="M156.32 52.4848H156.35C156.68 52.4848 157 52.4848 157.34 52.4548V32.1648C157.01 32.1448 156.68 32.1348 156.35 32.1348H156.32C155.99 32.1348 155.67 32.1348 155.34 32.1648V52.4548C155.67 52.4748 156 52.4848 156.32 52.4848Z" fill="#74D354"/>
<path d="M138.502 40.8749V43.7549C138.682 43.9349 138.882 44.1249 139.062 44.2949C139.552 44.7549 140.032 45.1949 140.502 45.6049V39.0249C140.022 39.4449 139.542 39.8749 139.052 40.3449C138.862 40.5149 138.682 40.6949 138.492 40.8849L138.502 40.8749Z" fill="#74D354"/>
<path d="M144.471 48.615C144.551 48.665 144.631 48.715 144.711 48.765V35.855C144.631 35.905 144.551 35.955 144.471 36.015C143.891 36.395 143.311 36.795 142.711 37.245V47.395C143.301 47.845 143.891 48.245 144.471 48.625V48.615Z" fill="#74D354"/>
<path d="M148.922 50.965V33.645C148.272 33.915 147.602 34.225 146.922 34.575V50.035C147.602 50.385 148.262 50.705 148.922 50.965Z" fill="#74D354"/>
<path d="M153.129 52.2048V32.4248C152.469 32.5348 151.799 32.6948 151.129 32.8948V51.7348C151.799 51.9348 152.469 52.0848 153.129 52.2048Z" fill="#74D354"/>
<path d="M115.52 29.2446C114.94 28.6746 114.34 28.1546 113.74 27.6846H113.52V57.1246C114.2 56.6046 114.86 56.0346 115.52 55.3946V29.2446Z" fill="#74D354"/>
<path d="M117.86 31.785C117.82 31.735 117.77 31.685 117.73 31.625V53.005C117.78 52.945 117.82 52.895 117.87 52.845C118.52 52.065 119.13 51.255 119.74 50.425V34.185C119.13 33.355 118.51 32.555 117.87 31.775L117.86 31.785Z" fill="#74D354"/>
<path d="M123.941 40.4948C123.271 39.4448 122.611 38.4148 121.941 37.4048V47.2548C122.611 46.2448 123.271 45.2148 123.941 44.1548V40.4948Z" fill="#74D354"/>
<path d="M197.148 55.3849C197.678 55.9049 198.218 56.3749 198.768 56.8149H199.148V27.5049C198.478 28.0149 197.808 28.5949 197.148 29.2349V55.3849Z" fill="#74D354"/>
<path d="M194.811 52.845C194.851 52.895 194.901 52.955 194.941 53.005V31.625C194.901 31.685 194.851 31.725 194.811 31.785C194.161 32.565 193.551 33.375 192.941 34.205V50.445C193.541 51.275 194.171 52.075 194.811 52.865V52.845Z" fill="#74D354"/>
<path d="M188.73 44.1347C189.41 45.1847 190.07 46.2247 190.73 47.2247V37.3647C190.06 38.3747 189.4 39.4147 188.73 40.4647V44.1247V44.1347Z" fill="#74D354"/>
<path d="M180.741 36.125C178.411 33.315 175.901 30.935 173.041 28.865C168.161 25.355 162.441 23.155 156.331 23.145C150.261 23.165 144.521 25.325 139.631 28.865C136.901 30.845 134.411 33.145 131.941 36.115C133.131 37.575 134.661 39.535 135.781 40.815C137.761 38.675 140.311 36.405 142.711 34.775C146.831 32.035 151.471 30.075 156.341 30.145C160.491 30.145 164.431 31.445 167.961 33.515C171.241 35.415 174.311 38.045 176.901 40.825C177.811 39.775 179.711 37.385 180.751 36.125H180.741Z" fill="#74D354"/>
<path d="M190.729 50.785C189.319 48.795 187.629 46.125 186.369 44.145C185.539 45.425 184.619 46.765 183.689 47.995C183.559 48.165 183.429 48.335 183.289 48.505C184.989 50.585 186.759 52.655 188.719 54.595C191.309 57.185 194.419 59.605 197.819 61.025C200.379 62.115 203.159 62.615 205.819 62.475C203.209 61.855 200.829 60.755 198.749 59.315C195.529 57.075 193.009 54.025 190.719 50.785H190.729Z" fill="#74D354"/>
<path d="M121.842 56.5348C124.612 54.1248 127.042 51.3348 129.352 48.5148C128.622 47.6248 127.362 45.7948 126.522 44.5148C126.452 44.4048 126.372 44.2848 126.302 44.1748C124.112 47.5948 121.992 50.9848 119.412 54.1348C117.792 56.0848 116.002 57.8748 113.912 59.3248C111.832 60.7648 109.442 61.8648 106.832 62.4848C109.502 62.6248 112.282 62.1248 114.832 61.0248C117.412 59.9548 119.742 58.3448 121.842 56.5348Z" fill="#74D354"/>
<path d="M197.148 56.7549V56.8149H197.218C197.218 56.8149 197.178 56.7749 197.148 56.7549Z" fill="#74D354"/>
<path d="M126.3 40.4748C129.04 44.7148 132.57 50.6448 139.63 55.7748C144.63 59.3648 150.36 61.4848 156.33 61.4848C162.42 61.4648 168.13 59.3148 173.03 55.7648C177.82 52.3048 181.26 48.2848 184.46 43.4048C187.51 38.7648 190.05 34.3748 193.24 30.5148C196.7 26.3448 200.55 23.4148 205.81 22.1548C200.09 21.8748 195.16 24.3548 190.81 28.1048C186.72 31.6648 183.45 35.9748 180.03 40.1748C177.12 43.8148 173.83 47.2248 169.94 49.8648C165.96 52.6648 161.15 54.4948 156.32 54.4948C151.49 54.4948 146.88 52.6448 142.69 49.8548C136.95 45.9548 133.51 41.2548 129.35 36.1348C125.35 31.2448 120.66 26.0448 114.83 23.6148C112.27 22.5248 109.49 22.0248 106.82 22.1648C109.43 22.7848 111.82 23.8848 113.89 25.3348C119.07 28.9348 122.81 35.0448 126.28 40.4948L126.3 40.4748Z" fill="#74D354"/>
<path d="M62.0106 102V76.08H68.5706C70.832 76.08 72.592 76.368 73.8506 76.944C75.1093 77.4987 75.9946 78.384 76.5066 79.6C77.0186 80.7947 77.2746 82.352 77.2746 84.272V93.68C77.2746 95.6213 77.0186 97.2107 76.5066 98.448C75.9946 99.664 75.1093 100.56 73.8506 101.136C72.6133 101.712 70.8746 102 68.6346 102H62.0106ZM67.7386 98.032H68.6346C69.5093 98.032 70.1386 97.904 70.5226 97.648C70.9066 97.392 71.1413 97.008 71.2266 96.496C71.3333 95.984 71.3866 95.344 71.3866 94.576V83.28C71.3866 82.512 71.3226 81.8933 71.1946 81.424C71.088 80.9547 70.8426 80.6133 70.4586 80.4C70.0746 80.1867 69.456 80.08 68.6026 80.08H67.7386V98.032ZM79.8646 102V83.504H85.0806V102H79.8646ZM79.8326 80.368V76.752H85.0806V80.368H79.8326ZM93.6774 108.4C92.2907 108.4 91.0854 108.261 90.0614 107.984C89.0374 107.707 88.2374 107.291 87.6614 106.736C87.1067 106.181 86.8294 105.477 86.8294 104.624C86.8294 104.048 86.9467 103.525 87.1814 103.056C87.4374 102.608 87.7787 102.213 88.2054 101.872C88.6534 101.509 89.1547 101.2 89.7094 100.944C88.8987 100.709 88.2694 100.357 87.8214 99.888C87.3734 99.4187 87.1494 98.7893 87.1494 98C87.1494 97.2533 87.3307 96.6133 87.6934 96.08C88.056 95.5253 88.5574 94.9707 89.1974 94.416C88.6 93.8827 88.1414 93.232 87.8214 92.464C87.5227 91.6747 87.3734 90.7253 87.3734 89.616C87.3734 88.2293 87.6294 87.056 88.1414 86.096C88.6534 85.136 89.4 84.4107 90.3814 83.92C91.384 83.4293 92.5894 83.184 93.9974 83.184C94.9574 83.184 95.8 83.3013 96.5254 83.536C97.2507 83.7707 97.8694 84.1333 98.3814 84.624C98.616 84.2613 98.9254 83.9093 99.3094 83.568C99.6934 83.2267 100.131 82.9387 100.621 82.704L101.293 82.384L102.509 84.88C102.317 84.944 102.051 85.0507 101.709 85.2C101.368 85.3493 101.005 85.5093 100.621 85.68C100.259 85.8507 99.928 86.0213 99.6294 86.192C99.864 86.6613 100.045 87.1947 100.173 87.792C100.301 88.3893 100.365 89.008 100.365 89.648C100.365 90.9707 100.12 92.112 99.6294 93.072C99.16 94.032 98.456 94.768 97.5174 95.28C96.5787 95.7707 95.4054 96.016 93.9974 96.016C93.4 96.016 92.8347 95.9733 92.3014 95.888C91.768 95.7813 91.2774 95.6533 90.8294 95.504C90.7014 95.6747 90.584 95.856 90.4774 96.048C90.392 96.2187 90.3494 96.4107 90.3494 96.624C90.3494 96.88 90.4774 97.0827 90.7334 97.232C90.9894 97.3813 91.448 97.4987 92.1094 97.584L96.9734 98.128C98.552 98.2987 99.7147 98.8107 100.461 99.664C101.208 100.496 101.581 101.595 101.581 102.96C101.581 104.133 101.315 105.125 100.781 105.936C100.269 106.747 99.4267 107.355 98.2534 107.76C97.1014 108.187 95.576 108.4 93.6774 108.4ZM94.3494 104.624C95.5227 104.624 96.4187 104.528 97.0374 104.336C97.6774 104.144 97.9974 103.749 97.9974 103.152C97.9974 102.853 97.912 102.608 97.7414 102.416C97.5707 102.245 97.2827 102.107 96.8774 102C96.4934 101.872 95.9387 101.776 95.2134 101.712L91.7894 101.36C91.576 101.509 91.384 101.68 91.2134 101.872C91.064 102.043 90.936 102.224 90.8294 102.416C90.744 102.629 90.7014 102.853 90.7014 103.088C90.7014 103.6 90.9787 103.984 91.5334 104.24C92.088 104.496 93.0267 104.624 94.3494 104.624ZM93.9974 92.912C94.296 92.912 94.5414 92.8587 94.7334 92.752C94.9254 92.624 95.064 92.432 95.1494 92.176C95.256 91.92 95.3307 91.5787 95.3734 91.152C95.416 90.7253 95.4374 90.2133 95.4374 89.616C95.4374 88.9973 95.416 88.4853 95.3734 88.08C95.3307 87.6533 95.256 87.312 95.1494 87.056C95.064 86.7787 94.9254 86.5867 94.7334 86.48C94.5414 86.352 94.296 86.288 93.9974 86.288C93.6987 86.288 93.4534 86.352 93.2614 86.48C93.0694 86.5867 92.92 86.768 92.8134 87.024C92.728 87.28 92.664 87.6213 92.6214 88.048C92.5787 88.4747 92.5574 88.9973 92.5574 89.616C92.5574 90.2133 92.5787 90.7253 92.6214 91.152C92.664 91.5573 92.728 91.8987 92.8134 92.176C92.92 92.432 93.0694 92.624 93.2614 92.752C93.4534 92.8587 93.6987 92.912 93.9974 92.912ZM103.085 102V83.504H108.301V102H103.085ZM103.053 80.368V76.752H108.301V80.368H103.053ZM118.593 102.384C116.631 102.384 115.073 102.032 113.921 101.328C112.791 100.603 111.991 99.6 111.521 98.32C111.052 97.0187 110.817 95.4933 110.817 93.744V84.4C110.817 82.608 111.052 81.072 111.521 79.792C111.991 78.4907 112.791 77.488 113.921 76.784C115.073 76.08 116.631 75.728 118.593 75.728C120.513 75.728 122.007 76.048 123.073 76.688C124.161 77.3067 124.929 78.1813 125.377 79.312C125.825 80.4427 126.049 81.744 126.049 83.216V85.456H120.449V82.864C120.449 82.352 120.417 81.8613 120.353 81.392C120.311 80.9227 120.161 80.5387 119.905 80.24C119.649 79.92 119.212 79.76 118.593 79.76C117.996 79.76 117.548 79.92 117.249 80.24C116.972 80.56 116.791 80.9653 116.705 81.456C116.641 81.9253 116.609 82.4267 116.609 82.96V95.152C116.609 95.728 116.652 96.2613 116.737 96.752C116.844 97.2213 117.036 97.6053 117.313 97.904C117.612 98.1813 118.039 98.32 118.593 98.32C119.191 98.32 119.617 98.1707 119.873 97.872C120.129 97.552 120.289 97.1467 120.353 96.656C120.417 96.1653 120.449 95.664 120.449 95.152V92.432H126.049V94.672C126.049 96.144 125.825 97.4667 125.377 98.64C124.951 99.792 124.193 100.709 123.105 101.392C122.039 102.053 120.535 102.384 118.593 102.384ZM128.497 102V76.08H133.681V102H128.497ZM136.446 102V83.504H141.662V102H136.446ZM136.414 80.368V76.752H141.662V80.368H136.414ZM144.243 102V83.504H149.459V85.36C150.141 84.6773 150.845 84.144 151.571 83.76C152.317 83.376 153.096 83.184 153.907 83.184C154.675 83.184 155.304 83.376 155.795 83.76C156.307 84.1227 156.691 84.6347 156.947 85.296C157.203 85.936 157.331 86.672 157.331 87.504V102H152.147V88.24C152.147 87.792 152.072 87.4507 151.923 87.216C151.773 86.9813 151.496 86.864 151.091 86.864C150.877 86.864 150.621 86.928 150.323 87.056C150.045 87.1627 149.757 87.3227 149.459 87.536V102H144.243ZM159.853 102V83.504H165.069V102H159.853ZM159.821 80.368V76.752H165.069V80.368H159.821ZM173.666 102.32C172.322 102.32 171.17 102.075 170.21 101.584C169.271 101.093 168.546 100.389 168.034 99.472C167.522 98.5547 167.266 97.4453 167.266 96.144V89.36C167.266 88.0373 167.522 86.9173 168.034 86C168.546 85.0827 169.271 84.3893 170.21 83.92C171.17 83.4293 172.322 83.184 173.666 83.184C174.989 83.184 176.109 83.3867 177.026 83.792C177.965 84.1973 178.679 84.816 179.17 85.648C179.661 86.4587 179.906 87.4933 179.906 88.752V90.704H174.882V88.592C174.882 88.1013 174.829 87.728 174.722 87.472C174.637 87.1947 174.498 87.0027 174.306 86.896C174.135 86.7893 173.922 86.736 173.666 86.736C173.41 86.736 173.197 86.8107 173.026 86.96C172.855 87.088 172.727 87.312 172.642 87.632C172.557 87.9307 172.514 88.3573 172.514 88.912V96.592C172.514 97.424 172.61 97.9893 172.802 98.288C173.015 98.5867 173.314 98.736 173.698 98.736C173.975 98.736 174.199 98.6827 174.37 98.576C174.541 98.448 174.669 98.256 174.754 98C174.839 97.7227 174.882 97.36 174.882 96.912V94.448H179.906V96.688C179.906 97.9253 179.65 98.9707 179.138 99.824C178.647 100.656 177.933 101.285 176.994 101.712C176.077 102.117 174.967 102.32 173.666 102.32ZM187.675 102.32C186.054 102.32 184.699 101.957 183.611 101.232C182.544 100.507 181.67 99.3227 180.987 97.68L184.539 96.112C184.88 96.944 185.275 97.6053 185.723 98.096C186.192 98.5653 186.704 98.8 187.259 98.8C187.664 98.8 187.963 98.7147 188.155 98.544C188.368 98.3733 188.475 98.1387 188.475 97.84C188.475 97.3493 188.283 96.9013 187.899 96.496C187.536 96.0907 186.875 95.4933 185.915 94.704L184.571 93.584C183.59 92.752 182.811 91.952 182.235 91.184C181.68 90.3947 181.403 89.424 181.403 88.272C181.403 87.2693 181.659 86.384 182.171 85.616C182.704 84.848 183.408 84.2507 184.283 83.824C185.158 83.3973 186.096 83.184 187.099 83.184C188.614 83.184 189.883 83.6 190.907 84.432C191.931 85.264 192.646 86.4373 193.051 87.952L189.691 89.488C189.563 89.0827 189.382 88.6773 189.147 88.272C188.912 87.8667 188.624 87.5253 188.283 87.248C187.963 86.9707 187.611 86.832 187.227 86.832C186.886 86.832 186.608 86.928 186.395 87.12C186.203 87.312 186.107 87.568 186.107 87.888C186.107 88.2933 186.331 88.7307 186.779 89.2C187.248 89.6693 187.888 90.2347 188.699 90.896L190.011 92.048C190.544 92.496 191.067 92.976 191.579 93.488C192.091 94 192.507 94.5653 192.827 95.184C193.168 95.8027 193.339 96.5067 193.339 97.296C193.339 98.3627 193.072 99.28 192.539 100.048C192.006 100.795 191.302 101.36 190.427 101.744C189.574 102.128 188.656 102.32 187.675 102.32ZM1.9925 134V108.08H9.1285C10.8778 108.08 12.3925 108.272 13.6725 108.656C14.9525 109.04 15.9445 109.733 16.6485 110.736C17.3738 111.717 17.7365 113.115 17.7365 114.928C17.7365 115.995 17.6512 116.944 17.4805 117.776C17.3098 118.608 16.9898 119.333 16.5205 119.952C16.0725 120.549 15.4218 121.051 14.5685 121.456L18.1205 134H12.2005L9.3525 122.384H7.7205V134H1.9925ZM7.7205 119.088H9.3205C10.1312 119.088 10.7605 118.949 11.2085 118.672C11.6565 118.373 11.9658 117.957 12.1365 117.424C12.3285 116.869 12.4245 116.208 12.4245 115.44C12.4245 114.331 12.2218 113.467 11.8165 112.848C11.4112 112.229 10.6645 111.92 9.5765 111.92H7.7205V119.088ZM26.3 134.32C24.956 134.32 23.804 134.085 22.844 133.616C21.884 133.125 21.148 132.421 20.636 131.504C20.124 130.565 19.868 129.445 19.868 128.144V121.36C19.868 120.037 20.124 118.917 20.636 118C21.148 117.083 21.884 116.389 22.844 115.92C23.8253 115.429 24.9773 115.184 26.3 115.184C27.6653 115.184 28.796 115.419 29.692 115.888C30.6093 116.357 31.292 117.051 31.74 117.968C32.2093 118.885 32.444 120.016 32.444 121.36V125.072H25.02V128.624C25.02 129.093 25.0733 129.477 25.18 129.776C25.2867 130.075 25.436 130.288 25.628 130.416C25.82 130.544 26.044 130.608 26.3 130.608C26.556 130.608 26.78 130.555 26.972 130.448C27.1853 130.32 27.3453 130.128 27.452 129.872C27.58 129.616 27.644 129.264 27.644 128.816V126.864H32.444V128.656C32.444 130.533 31.9 131.952 30.812 132.912C29.724 133.851 28.22 134.32 26.3 134.32ZM25.02 122.64H27.644V120.784C27.644 120.293 27.58 119.909 27.452 119.632C27.3453 119.355 27.1853 119.163 26.972 119.056C26.78 118.949 26.5453 118.896 26.268 118.896C26.012 118.896 25.788 118.96 25.596 119.088C25.4253 119.216 25.2867 119.44 25.18 119.76C25.0733 120.059 25.02 120.496 25.02 121.072V122.64ZM40.3393 134.32C38.7179 134.32 37.3633 133.957 36.2753 133.232C35.2086 132.507 34.3339 131.323 33.6513 129.68L37.2033 128.112C37.5446 128.944 37.9393 129.605 38.3873 130.096C38.8566 130.565 39.3686 130.8 39.9233 130.8C40.3286 130.8 40.6273 130.715 40.8193 130.544C41.0326 130.373 41.1393 130.139 41.1393 129.84C41.1393 129.349 40.9473 128.901 40.5633 128.496C40.2006 128.091 39.5393 127.493 38.5793 126.704L37.2353 125.584C36.2539 124.752 35.4753 123.952 34.8993 123.184C34.3446 122.395 34.0673 121.424 34.0673 120.272C34.0673 119.269 34.3233 118.384 34.8353 117.616C35.3686 116.848 36.0726 116.251 36.9473 115.824C37.8219 115.397 38.7606 115.184 39.7633 115.184C41.2779 115.184 42.5473 115.6 43.5713 116.432C44.5953 117.264 45.3099 118.437 45.7153 119.952L42.3553 121.488C42.2273 121.083 42.0459 120.677 41.8113 120.272C41.5766 119.867 41.2886 119.525 40.9473 119.248C40.6273 118.971 40.2753 118.832 39.8913 118.832C39.5499 118.832 39.2726 118.928 39.0593 119.12C38.8673 119.312 38.7713 119.568 38.7713 119.888C38.7713 120.293 38.9953 120.731 39.4433 121.2C39.9126 121.669 40.5526 122.235 41.3633 122.896L42.6753 124.048C43.2086 124.496 43.7313 124.976 44.2433 125.488C44.7553 126 45.1713 126.565 45.4913 127.184C45.8326 127.803 46.0033 128.507 46.0033 129.296C46.0033 130.363 45.7366 131.28 45.2033 132.048C44.6699 132.795 43.9659 133.36 43.0913 133.744C42.2379 134.128 41.3206 134.32 40.3393 134.32ZM53.6138 134.32C52.2698 134.32 51.1178 134.085 50.1578 133.616C49.1978 133.125 48.4618 132.421 47.9498 131.504C47.4378 130.565 47.1818 129.445 47.1818 128.144V121.36C47.1818 120.037 47.4378 118.917 47.9498 118C48.4618 117.083 49.1978 116.389 50.1578 115.92C51.1391 115.429 52.2911 115.184 53.6138 115.184C54.9791 115.184 56.1098 115.419 57.0058 115.888C57.9231 116.357 58.6058 117.051 59.0538 117.968C59.5231 118.885 59.7578 120.016 59.7578 121.36V125.072H52.3338V128.624C52.3338 129.093 52.3871 129.477 52.4938 129.776C52.6004 130.075 52.7498 130.288 52.9418 130.416C53.1338 130.544 53.3578 130.608 53.6138 130.608C53.8698 130.608 54.0938 130.555 54.2858 130.448C54.4991 130.32 54.6591 130.128 54.7658 129.872C54.8938 129.616 54.9578 129.264 54.9578 128.816V126.864H59.7578V128.656C59.7578 130.533 59.2138 131.952 58.1258 132.912C57.0378 133.851 55.5338 134.32 53.6138 134.32ZM52.3338 122.64H54.9578V120.784C54.9578 120.293 54.8938 119.909 54.7658 119.632C54.6591 119.355 54.4991 119.163 54.2858 119.056C54.0938 118.949 53.8591 118.896 53.5818 118.896C53.3258 118.896 53.1018 118.96 52.9098 119.088C52.7391 119.216 52.6004 119.44 52.4938 119.76C52.3871 120.059 52.3338 120.496 52.3338 121.072V122.64ZM65.765 134.32C64.8263 134.32 64.037 134.096 63.397 133.648C62.757 133.2 62.277 132.635 61.957 131.952C61.637 131.248 61.477 130.533 61.477 129.808C61.477 128.656 61.701 127.685 62.149 126.896C62.6183 126.107 63.2263 125.445 63.973 124.912C64.7197 124.379 65.541 123.931 66.437 123.568C67.333 123.184 68.2183 122.843 69.093 122.544V120.688C69.093 120.368 69.061 120.091 68.997 119.856C68.933 119.6 68.8263 119.408 68.677 119.28C68.5277 119.131 68.3037 119.056 68.005 119.056C67.7063 119.056 67.4717 119.12 67.301 119.248C67.1517 119.376 67.045 119.557 66.981 119.792C66.917 120.005 66.8743 120.251 66.853 120.528L66.725 121.872L61.861 121.68C61.9677 119.461 62.5543 117.829 63.621 116.784C64.709 115.717 66.3303 115.184 68.485 115.184C70.3623 115.184 71.7597 115.707 72.677 116.752C73.6157 117.776 74.085 119.109 74.085 120.752V129.392C74.085 130.16 74.0957 130.832 74.117 131.408C74.1597 131.984 74.2023 132.485 74.245 132.912C74.309 133.339 74.3623 133.701 74.405 134H69.733C69.669 133.509 69.5943 132.976 69.509 132.4C69.4237 131.824 69.3597 131.483 69.317 131.376C69.1037 132.144 68.6983 132.827 68.101 133.424C67.525 134.021 66.7463 134.32 65.765 134.32ZM67.621 130.8C67.8343 130.8 68.0263 130.757 68.197 130.672C68.389 130.587 68.5597 130.469 68.709 130.32C68.8583 130.171 68.9863 130.021 69.093 129.872V124.816C68.6663 125.072 68.2717 125.339 67.909 125.616C67.5463 125.872 67.237 126.16 66.981 126.48C66.725 126.8 66.5223 127.152 66.373 127.536C66.245 127.899 66.181 128.315 66.181 128.784C66.181 129.403 66.309 129.893 66.565 130.256C66.821 130.619 67.173 130.8 67.621 130.8ZM76.5998 134V115.504H81.8158V118.576C82.4131 117.509 83.0104 116.699 83.6078 116.144C84.2051 115.568 84.9304 115.28 85.7838 115.28C85.9544 115.28 86.1038 115.291 86.2318 115.312C86.3598 115.312 86.4771 115.333 86.5838 115.376V120.56C86.3491 120.453 86.0824 120.368 85.7838 120.304C85.5064 120.219 85.2078 120.176 84.8878 120.176C84.2904 120.176 83.7358 120.336 83.2238 120.656C82.7118 120.976 82.2424 121.413 81.8158 121.968V134H76.5998ZM94.1618 134.32C92.8178 134.32 91.6658 134.075 90.7058 133.584C89.7671 133.093 89.0418 132.389 88.5298 131.472C88.0178 130.555 87.7618 129.445 87.7618 128.144V121.36C87.7618 120.037 88.0178 118.917 88.5298 118C89.0418 117.083 89.7671 116.389 90.7058 115.92C91.6658 115.429 92.8178 115.184 94.1618 115.184C95.4844 115.184 96.6044 115.387 97.5218 115.792C98.4604 116.197 99.1751 116.816 99.6658 117.648C100.156 118.459 100.402 119.493 100.402 120.752V122.704H95.3778V120.592C95.3778 120.101 95.3244 119.728 95.2178 119.472C95.1324 119.195 94.9938 119.003 94.8018 118.896C94.6311 118.789 94.4178 118.736 94.1618 118.736C93.9058 118.736 93.6924 118.811 93.5218 118.96C93.3511 119.088 93.2231 119.312 93.1378 119.632C93.0524 119.931 93.0098 120.357 93.0098 120.912V128.592C93.0098 129.424 93.1058 129.989 93.2978 130.288C93.5111 130.587 93.8098 130.736 94.1938 130.736C94.4711 130.736 94.6951 130.683 94.8658 130.576C95.0364 130.448 95.1644 130.256 95.2498 130C95.3351 129.723 95.3778 129.36 95.3778 128.912V126.448H100.402V128.688C100.402 129.925 100.146 130.971 99.6338 131.824C99.1431 132.656 98.4284 133.285 97.4898 133.712C96.5724 134.117 95.4631 134.32 94.1618 134.32ZM102.506 134V108.08H107.69V117.136C108.373 116.453 109.088 115.963 109.834 115.664C110.581 115.344 111.381 115.184 112.234 115.184C112.981 115.184 113.6 115.376 114.09 115.76C114.602 116.123 114.986 116.635 115.242 117.296C115.498 117.936 115.626 118.672 115.626 119.504V134H110.442V120.24C110.442 119.792 110.368 119.451 110.218 119.216C110.069 118.981 109.792 118.864 109.386 118.864C109.173 118.864 108.917 118.928 108.618 119.056C108.32 119.163 108.01 119.323 107.69 119.536V134H102.506ZM131.423 134.384C130.229 134.384 129.162 134.139 128.223 133.648C127.306 133.136 126.581 132.421 126.047 131.504C125.535 130.565 125.279 129.456 125.279 128.176C125.279 126.533 125.621 125.093 126.303 123.856C127.007 122.619 127.893 121.445 128.959 120.336C128.533 119.568 128.117 118.8 127.711 118.032C127.306 117.243 126.975 116.464 126.719 115.696C126.485 114.907 126.367 114.139 126.367 113.392C126.367 112.325 126.581 111.365 127.007 110.512C127.455 109.659 128.095 108.976 128.927 108.464C129.781 107.952 130.815 107.696 132.031 107.696C133.141 107.696 134.111 107.931 134.943 108.4C135.775 108.848 136.426 109.488 136.895 110.32C137.386 111.152 137.631 112.112 137.631 113.2C137.631 114.395 137.386 115.451 136.895 116.368C136.426 117.285 135.85 118.117 135.167 118.864C134.506 119.589 133.866 120.293 133.247 120.976L136.287 126.672C136.479 126.331 136.639 125.851 136.767 125.232C136.917 124.592 137.023 123.909 137.087 123.184C137.173 122.459 137.226 121.819 137.247 121.264H140.767C140.767 122.523 140.682 123.632 140.511 124.592C140.362 125.552 140.138 126.427 139.839 127.216C139.562 128.005 139.221 128.773 138.815 129.52C139.029 129.797 139.327 130.032 139.711 130.224C140.117 130.416 140.522 130.533 140.927 130.576V134.384C140.778 134.405 140.629 134.427 140.479 134.448C140.33 134.469 140.181 134.48 140.031 134.48C139.498 134.48 138.975 134.363 138.463 134.128C137.973 133.915 137.525 133.637 137.119 133.296C136.714 132.933 136.362 132.571 136.063 132.208C135.53 132.891 134.869 133.424 134.079 133.808C133.311 134.192 132.426 134.384 131.423 134.384ZM131.615 130.896C132.085 130.896 132.511 130.779 132.895 130.544C133.301 130.288 133.642 129.957 133.919 129.552L130.751 123.696C130.282 124.443 129.941 125.168 129.727 125.872C129.514 126.555 129.407 127.248 129.407 127.952C129.407 128.507 129.493 129.008 129.663 129.456C129.834 129.904 130.079 130.256 130.399 130.512C130.741 130.768 131.146 130.896 131.615 130.896ZM131.775 118.224C132.074 117.819 132.362 117.317 132.639 116.72C132.917 116.123 133.141 115.504 133.311 114.864C133.503 114.203 133.599 113.616 133.599 113.104C133.599 112.549 133.45 112.123 133.151 111.824C132.853 111.525 132.501 111.376 132.095 111.376C131.647 111.376 131.285 111.557 131.007 111.92C130.73 112.283 130.591 112.773 130.591 113.392C130.591 114.267 130.719 115.131 130.975 115.984C131.231 116.816 131.498 117.563 131.775 118.224ZM157.989 134.384C156.367 134.384 155.013 134.096 153.925 133.52C152.837 132.944 152.015 132.059 151.461 130.864C150.906 129.648 150.597 128.08 150.533 126.16L155.429 125.424C155.45 126.533 155.546 127.429 155.717 128.112C155.909 128.795 156.165 129.285 156.485 129.584C156.826 129.883 157.231 130.032 157.701 130.032C158.298 130.032 158.682 129.829 158.853 129.424C159.045 129.019 159.141 128.592 159.141 128.144C159.141 127.077 158.885 126.181 158.373 125.456C157.861 124.709 157.167 123.963 156.293 123.216L154.053 121.264C153.071 120.432 152.239 119.493 151.557 118.448C150.895 117.381 150.565 116.069 150.565 114.512C150.565 112.315 151.215 110.64 152.517 109.488C153.818 108.315 155.589 107.728 157.829 107.728C159.215 107.728 160.325 107.963 161.157 108.432C162.01 108.901 162.65 109.52 163.077 110.288C163.525 111.035 163.823 111.835 163.973 112.688C164.143 113.52 164.239 114.32 164.261 115.088L159.333 115.696C159.311 114.928 159.258 114.267 159.173 113.712C159.109 113.136 158.959 112.699 158.725 112.4C158.49 112.08 158.127 111.92 157.637 111.92C157.103 111.92 156.709 112.144 156.453 112.592C156.218 113.04 156.101 113.488 156.101 113.936C156.101 114.896 156.325 115.685 156.773 116.304C157.242 116.901 157.85 117.531 158.597 118.192L160.741 120.08C161.871 121.04 162.821 122.128 163.589 123.344C164.378 124.56 164.773 126.064 164.773 127.856C164.773 129.072 164.495 130.181 163.941 131.184C163.386 132.165 162.597 132.944 161.573 133.52C160.57 134.096 159.375 134.384 157.989 134.384ZM172.666 134.32C171.322 134.32 170.17 134.085 169.21 133.616C168.25 133.125 167.514 132.421 167.002 131.504C166.49 130.565 166.234 129.445 166.234 128.144V121.36C166.234 120.037 166.49 118.917 167.002 118C167.514 117.083 168.25 116.389 169.21 115.92C170.192 115.429 171.344 115.184 172.666 115.184C174.032 115.184 175.162 115.419 176.058 115.888C176.976 116.357 177.658 117.051 178.106 117.968C178.576 118.885 178.81 120.016 178.81 121.36V125.072H171.386V128.624C171.386 129.093 171.44 129.477 171.546 129.776C171.653 130.075 171.802 130.288 171.994 130.416C172.186 130.544 172.41 130.608 172.666 130.608C172.922 130.608 173.146 130.555 173.338 130.448C173.552 130.32 173.712 130.128 173.818 129.872C173.946 129.616 174.01 129.264 174.01 128.816V126.864H178.81V128.656C178.81 130.533 178.266 131.952 177.178 132.912C176.09 133.851 174.586 134.32 172.666 134.32ZM171.386 122.64H174.01V120.784C174.01 120.293 173.946 119.909 173.818 119.632C173.712 119.355 173.552 119.163 173.338 119.056C173.146 118.949 172.912 118.896 172.634 118.896C172.378 118.896 172.154 118.96 171.962 119.088C171.792 119.216 171.653 119.44 171.546 119.76C171.44 120.059 171.386 120.496 171.386 121.072V122.64ZM181.074 134V115.504H186.29V118.576C186.887 117.509 187.484 116.699 188.082 116.144C188.679 115.568 189.404 115.28 190.258 115.28C190.428 115.28 190.578 115.291 190.706 115.312C190.834 115.312 190.951 115.333 191.058 115.376V120.56C190.823 120.453 190.556 120.368 190.258 120.304C189.98 120.219 189.682 120.176 189.362 120.176C188.764 120.176 188.21 120.336 187.698 120.656C187.186 120.976 186.716 121.413 186.29 121.968V134H181.074ZM195.019 134L191.307 115.504H196.299L197.835 127.312L199.243 115.504H204.235L200.427 134H195.019ZM205.48 134V115.504H210.696V134H205.48ZM205.448 112.368V108.752H210.696V112.368H205.448ZM219.293 134.32C217.949 134.32 216.797 134.075 215.837 133.584C214.898 133.093 214.173 132.389 213.661 131.472C213.149 130.555 212.893 129.445 212.893 128.144V121.36C212.893 120.037 213.149 118.917 213.661 118C214.173 117.083 214.898 116.389 215.837 115.92C216.797 115.429 217.949 115.184 219.293 115.184C220.616 115.184 221.736 115.387 222.653 115.792C223.592 116.197 224.306 116.816 224.797 117.648C225.288 118.459 225.533 119.493 225.533 120.752V122.704H220.509V120.592C220.509 120.101 220.456 119.728 220.349 119.472C220.264 119.195 220.125 119.003 219.933 118.896C219.762 118.789 219.549 118.736 219.293 118.736C219.037 118.736 218.824 118.811 218.653 118.96C218.482 119.088 218.354 119.312 218.269 119.632C218.184 119.931 218.141 120.357 218.141 120.912V128.592C218.141 129.424 218.237 129.989 218.429 130.288C218.642 130.587 218.941 130.736 219.325 130.736C219.602 130.736 219.826 130.683 219.997 130.576C220.168 130.448 220.296 130.256 220.381 130C220.466 129.723 220.509 129.36 220.509 128.912V126.448H225.533V128.688C225.533 129.925 225.277 130.971 224.765 131.824C224.274 132.656 223.56 133.285 222.621 133.712C221.704 134.117 220.594 134.32 219.293 134.32ZM233.654 134.32C232.31 134.32 231.158 134.085 230.198 133.616C229.238 133.125 228.502 132.421 227.99 131.504C227.478 130.565 227.222 129.445 227.222 128.144V121.36C227.222 120.037 227.478 118.917 227.99 118C228.502 117.083 229.238 116.389 230.198 115.92C231.179 115.429 232.331 115.184 233.654 115.184C235.019 115.184 236.15 115.419 237.046 115.888C237.963 116.357 238.646 117.051 239.094 117.968C239.563 118.885 239.798 120.016 239.798 121.36V125.072H232.374V128.624C232.374 129.093 232.427 129.477 232.534 129.776C232.64 130.075 232.79 130.288 232.982 130.416C233.174 130.544 233.398 130.608 233.654 130.608C233.91 130.608 234.134 130.555 234.326 130.448C234.539 130.32 234.699 130.128 234.806 129.872C234.934 129.616 234.998 129.264 234.998 128.816V126.864H239.798V128.656C239.798 130.533 239.254 131.952 238.166 132.912C237.078 133.851 235.574 134.32 233.654 134.32ZM232.374 122.64H234.998V120.784C234.998 120.293 234.934 119.909 234.806 119.632C234.699 119.355 234.539 119.163 234.326 119.056C234.134 118.949 233.899 118.896 233.622 118.896C233.366 118.896 233.142 118.96 232.95 119.088C232.779 119.216 232.64 119.44 232.534 119.76C232.427 120.059 232.374 120.496 232.374 121.072V122.64ZM247.693 134.32C246.072 134.32 244.717 133.957 243.629 133.232C242.562 132.507 241.688 131.323 241.005 129.68L244.557 128.112C244.898 128.944 245.293 129.605 245.741 130.096C246.21 130.565 246.722 130.8 247.277 130.8C247.682 130.8 247.981 130.715 248.173 130.544C248.386 130.373 248.493 130.139 248.493 129.84C248.493 129.349 248.301 128.901 247.917 128.496C247.554 128.091 246.893 127.493 245.933 126.704L244.589 125.584C243.608 124.752 242.829 123.952 242.253 123.184C241.698 122.395 241.421 121.424 241.421 120.272C241.421 119.269 241.677 118.384 242.189 117.616C242.722 116.848 243.426 116.251 244.301 115.824C245.176 115.397 246.114 115.184 247.117 115.184C248.632 115.184 249.901 115.6 250.925 116.432C251.949 117.264 252.664 118.437 253.069 119.952L249.709 121.488C249.581 121.083 249.4 120.677 249.165 120.272C248.93 119.867 248.642 119.525 248.301 119.248C247.981 118.971 247.629 118.832 247.245 118.832C246.904 118.832 246.626 118.928 246.413 119.12C246.221 119.312 246.125 119.568 246.125 119.888C246.125 120.293 246.349 120.731 246.797 121.2C247.266 121.669 247.906 122.235 248.717 122.896L250.029 124.048C250.562 124.496 251.085 124.976 251.597 125.488C252.109 126 252.525 126.565 252.845 127.184C253.186 127.803 253.357 128.507 253.357 129.296C253.357 130.363 253.09 131.28 252.557 132.048C252.024 132.795 251.32 133.36 250.445 133.744C249.592 134.128 248.674 134.32 247.693 134.32Z" fill="#5FBBAC"/>
</svg>
